# xmcd
#
# Track frame offsets:
#	150
#	22603
#	41524
#	69530
#	96697
#	122480
#	149675
#	175026
#	199294
#	219326
#
# Disc length: 3238 seconds
#
# Revision: 2
# Processed by: cddbd v1.5.2PL0 Copyright (c) Steve Scherf et al.
# Submitted via: EZCDAudioConverter 8.0.2.1
#
DISCID=8e0ca40a
DTITLE=Hồng Nhung, Thanh Lam - Nghe Mưa
DYEAR=2000
DGENRE=Miscellaneous
TTITLE0=Thanh Lam - Như cơn mưa đi mãi
TTITLE1=Hồng Nhung - Tình thôi xót xa
TTITLE2=Thanh Lam - Ngày mưa hãy đến với em
TTITLE3=Hồng Nhung - Hơi thở mùa xuân
TTITLE4=Thanh Lam - Bay vào ngày xanh
TTITLE5=Hồng Nhung - Nghe mưa
TTITLE6=Thanh Lam - Bên em là biển rộng
TTITLE7=Hồng Nhung - Vẫn hát lời tình yêu
TTITLE8=Thanh Lam - Một ngày mùa đông
TTITLE9=Hồng Nhung - Dường như
EXTD=
EXTT0=
EXTT1=
EXTT2=
EXTT3=
EXTT4=
EXTT5=
EXTT6=
EXTT7=
EXTT8=
EXTT9=
PLAYORDER=
